<?xml version="1.0" encoding="utf-8"?>
<!DOCTYPE svg PUBLIC "-//W3C//DTD SVG 1.1//EN" "http://www.w3.org/Graphics/SVG/1.1/DTD/svg11.dtd">
<svg version="1.1" id="Layer_1" xmlns="http://www.w3.org/2000/svg" xmlns:xlink="http://www.w3.org/1999/xlink" x="0px" y="0px"
	 width="315.311px" height="187.241px" viewBox="0 0 315.311 187.241" enable-background="new 0 0 315.311 187.241"
	 xml:space="preserve">
<path fill="#C2C1C1" d="M243.976,3.732L78.117,37.791c-10.199,53.919-6.051,61.586-6.051,61.586l95.648-6.13
	c0.873-17.503,15.336-31.422,33.052-31.422c13.007,0,24.257,7.507,29.666,18.424l6.009-51.892L243.976,3.732z"/>
<path fill="#131313" d="M200.767,122.614c15.294,0,27.693-12.399,27.693-27.692c0-15.296-12.399-27.694-27.693-27.694
	s-27.693,12.398-27.693,27.694c0,4.796,1.221,9.309,3.367,13.244h-2.257l-66.734,6c-1.321-4.857-5.76-8.429-11.035-8.429
	c-6.317,0-11.438,5.121-11.438,11.438c0,6.318,5.121,11.438,11.438,11.438c5.562,0,10.194-3.971,11.223-9.231l69.874-6h2.62
	C185.201,119.046,192.566,122.614,200.767,122.614z M200.767,84.485c5.763,0,10.435,4.673,10.435,10.437
	c0,5.762-4.672,10.435-10.435,10.435s-10.436-4.673-10.436-10.435C190.331,89.158,195.003,84.485,200.767,84.485z"/>
<circle fill="#818081" cx="200.767" cy="94.921" r="6.428"/>
<linearGradient id="SVGID_1_" gradientUnits="userSpaceOnUse" x1="498.1511" y1="-597.2036" x2="423.5092" y2="-757.2734" gradientTransform="matrix(1 0 0 -1 -303.5 -616.4727)">
	<stop  offset="0" style="stop-color:#FFFFFF;stop-opacity:0.35"/>
	<stop  offset="0.9877" style="stop-color:#FFFFFF;stop-opacity:0"/>
</linearGradient>
<path fill="url(#SVGID_1_)" d="M236.441,28.357l-6.009,51.892c-5.409-10.917-16.659-18.424-29.666-18.424
	c-17.715,0-32.179,13.919-33.052,31.422l-95.648,6.13c0,0-4.148-7.667,6.051-61.586L243.976,3.732L236.441,28.357z M180.131,113.382
	h-2.62l-69.874,6c-1.029,5.261-5.661,9.231-11.223,9.231c-6.317,0-11.438-5.12-11.438-11.438c0-6.317,5.121-11.438,11.438-11.438
	c5.275,0,9.714,3.571,11.035,8.429l66.734-6h2.257c-2.146-3.936-3.367-8.448-3.367-13.244c0-15.296,12.399-27.694,27.693-27.694
	s27.693,12.398,27.693,27.694c0,15.293-12.399,27.692-27.693,27.692C192.566,122.614,185.201,119.046,180.131,113.382z
	 M190.331,94.921c0,5.762,4.672,10.435,10.436,10.435s10.435-4.673,10.435-10.435c0-5.764-4.672-10.437-10.435-10.437
	S190.331,89.158,190.331,94.921z M194.338,94.921c0,3.55,2.878,6.428,6.428,6.428s6.429-2.878,6.429-6.428
	c0-3.552-2.878-6.43-6.429-6.43S194.338,91.37,194.338,94.921z"/>
<g>
	<path fill="#333333" d="M15.344,175.238c-1.474,0-2.84-0.307-4.095-0.921c-1.256-0.614-2.341-1.427-3.256-2.437
		c-0.914-1.01-1.624-2.177-2.129-3.501c-0.506-1.324-0.758-2.709-0.758-4.156c0-1.501,0.246-2.928,0.737-4.279
		s1.167-2.532,2.027-3.542c0.859-1.01,1.884-1.809,3.071-2.396s2.49-0.881,3.91-0.881c1.802,0,3.398,0.472,4.791,1.413
		s2.498,2.082,3.316,3.419v-13.021h2.785v26.289c0,0.765,0.327,1.146,0.982,1.146v2.457c-0.465,0.082-0.833,0.123-1.105,0.123
		c-0.683,0-1.242-0.198-1.679-0.594c-0.438-0.396-0.655-0.866-0.655-1.413v-2.252c-0.874,1.393-2.027,2.498-3.46,3.316
		C18.395,174.829,16.901,175.238,15.344,175.238z M15.917,172.781c0.71,0,1.454-0.136,2.231-0.409
		c0.778-0.272,1.502-0.648,2.171-1.126c0.668-0.478,1.249-1.037,1.74-1.679s0.791-1.331,0.9-2.068v-6.593
		c-0.272-0.736-0.675-1.426-1.208-2.067c-0.532-0.642-1.133-1.208-1.802-1.699c-0.669-0.492-1.378-0.874-2.129-1.146
		c-0.751-0.273-1.494-0.41-2.231-0.41c-1.146,0-2.191,0.246-3.133,0.737s-1.74,1.141-2.396,1.945
		c-0.655,0.806-1.167,1.727-1.535,2.764c-0.369,1.038-0.553,2.103-0.553,3.194c0,1.146,0.204,2.238,0.613,3.275
		c0.41,1.038,0.969,1.945,1.68,2.724c0.709,0.777,1.549,1.399,2.518,1.863S14.798,172.781,15.917,172.781z"/>
	<path fill="#333333" d="M42.657,155.952c-1.884,0.055-3.521,0.573-4.914,1.556c-1.392,0.982-2.375,2.334-2.948,4.054v13.268H32.01
		v-21.334h2.621v5.118c0.736-1.501,1.705-2.75,2.907-3.747c1.2-0.996,2.498-1.494,3.89-1.494c0.246,0,0.478,0,0.696,0
		c0.218,0,0.396,0.014,0.532,0.041V155.952z"/>
	<path fill="#333333" d="M46.382,149.031v-4.095h2.784v4.095H46.382z M46.382,174.829v-21.334h2.784v21.334H46.382z"/>
	<path fill="#333333" d="M61.533,174.829l-8.681-21.334h2.907l7.33,18.754l7.37-18.754h2.703l-8.682,21.334H61.533z"/>
	<path fill="#333333" d="M86.184,175.238c-1.556,0-2.989-0.293-4.299-0.88c-1.311-0.587-2.444-1.393-3.399-2.416
		c-0.956-1.023-1.699-2.204-2.231-3.542s-0.799-2.771-0.799-4.3c0-1.501,0.267-2.914,0.799-4.238
		c0.532-1.323,1.275-2.483,2.231-3.48c0.955-0.996,2.082-1.788,3.379-2.375c1.296-0.587,2.723-0.881,4.278-0.881
		c1.557,0,2.982,0.294,4.279,0.881s2.409,1.386,3.338,2.396c0.928,1.01,1.651,2.17,2.17,3.48s0.778,2.703,0.778,4.177
		c0,0.219-0.008,0.438-0.021,0.655c-0.015,0.219-0.035,0.368-0.062,0.45H78.404c0.082,1.146,0.349,2.205,0.799,3.174
		s1.023,1.809,1.72,2.519s1.501,1.263,2.416,1.658c0.914,0.396,1.891,0.594,2.928,0.594c0.71,0,1.406-0.096,2.089-0.287
		c0.682-0.19,1.311-0.45,1.884-0.777c0.573-0.328,1.085-0.73,1.535-1.208s0.799-1.004,1.044-1.577l2.416,0.655
		c-0.327,0.792-0.792,1.509-1.393,2.15s-1.297,1.201-2.088,1.679c-0.792,0.478-1.665,0.847-2.621,1.105
		C88.177,175.108,87.194,175.238,86.184,175.238z M94.046,163.036c-0.082-1.146-0.348-2.191-0.799-3.133
		c-0.45-0.941-1.023-1.754-1.72-2.437c-0.695-0.682-1.509-1.214-2.437-1.597c-0.928-0.382-1.911-0.573-2.948-0.573
		s-2.021,0.191-2.948,0.573c-0.928,0.383-1.74,0.915-2.437,1.597c-0.695,0.683-1.256,1.502-1.679,2.457
		c-0.423,0.956-0.676,1.993-0.757,3.112H94.046z"/>
	<path fill="#333333" d="M118.82,174.829h-2.784v-11.916c0-2.539-0.369-4.382-1.106-5.528c-0.736-1.146-1.883-1.72-3.439-1.72
		c-0.818,0-1.638,0.15-2.457,0.45c-0.818,0.301-1.583,0.724-2.293,1.27c-0.71,0.547-1.331,1.194-1.863,1.945
		s-0.936,1.563-1.208,2.437v13.062h-2.784v-21.334h2.539v4.832c0.437-0.765,0.976-1.468,1.617-2.109
		c0.642-0.641,1.357-1.193,2.149-1.658c0.792-0.464,1.631-0.819,2.519-1.064c0.887-0.246,1.809-0.369,2.765-0.369
		c1.2,0,2.204,0.219,3.01,0.655c0.805,0.438,1.453,1.052,1.944,1.843c0.491,0.792,0.846,1.761,1.064,2.907s0.328,2.416,0.328,3.809
		V174.829z"/>
	<path fill="#333333" d="M145.517,175.238c-1.665,0-3.208-0.423-4.627-1.27c-1.42-0.846-2.525-1.938-3.316-3.275v4.136h-2.498
		v-29.893h2.784v13.021c0.955-1.446,2.103-2.613,3.44-3.501c1.337-0.887,2.907-1.331,4.709-1.331c1.474,0,2.812,0.314,4.013,0.942
		s2.218,1.468,3.051,2.519c0.832,1.051,1.474,2.238,1.925,3.562c0.45,1.324,0.675,2.682,0.675,4.074c0,1.501-0.26,2.921-0.777,4.259
		c-0.52,1.338-1.235,2.505-2.15,3.501c-0.915,0.997-1.993,1.788-3.234,2.375C148.267,174.945,146.937,175.238,145.517,175.238z
		 M144.863,172.781c1.173,0,2.245-0.238,3.214-0.716s1.802-1.119,2.498-1.925c0.696-0.805,1.242-1.72,1.638-2.744
		c0.396-1.023,0.594-2.081,0.594-3.173c0-1.119-0.184-2.197-0.553-3.235c-0.368-1.037-0.888-1.958-1.556-2.764
		c-0.67-0.805-1.468-1.447-2.396-1.925c-0.929-0.478-1.952-0.717-3.071-0.717c-0.847,0-1.638,0.144-2.375,0.431
		c-0.737,0.286-1.42,0.675-2.048,1.167c-0.628,0.491-1.194,1.058-1.699,1.699s-0.921,1.317-1.249,2.026v6.634
		c0.109,0.737,0.402,1.427,0.881,2.068c0.478,0.642,1.058,1.194,1.74,1.658c0.682,0.465,1.405,0.833,2.17,1.105
		C143.415,172.645,144.152,172.781,144.863,172.781z"/>
	<path fill="#333333" d="M160.792,181.422c0.136,0.026,0.272,0.047,0.409,0.062c0.137,0.014,0.272,0.021,0.41,0.021
		c0.272,0,0.565-0.027,0.88-0.082c0.313-0.055,0.539-0.109,0.676-0.164c0.136-0.055,0.279-0.171,0.43-0.348
		c0.15-0.178,0.341-0.491,0.573-0.942c0.231-0.45,0.525-1.078,0.881-1.883c0.354-0.806,0.805-1.892,1.352-3.256l-9.296-21.334h2.907
		l7.903,18.754l7.289-18.754h2.661l-11.097,27.518c-0.409,1.01-0.962,1.761-1.658,2.252s-1.673,0.737-2.928,0.737
		c-0.52,0-0.983-0.041-1.393-0.123V181.422z"/>
	<path fill="#333333" d="M199.776,175.116c-1.475,0-2.819-0.308-4.034-0.922s-2.266-1.426-3.152-2.437
		c-0.888-1.01-1.577-2.17-2.068-3.48s-0.737-2.662-0.737-4.054c0-1.475,0.239-2.887,0.717-4.238s1.153-2.532,2.027-3.542
		c0.873-1.01,1.917-1.815,3.132-2.416s2.56-0.901,4.034-0.901c1.828,0,3.412,0.458,4.75,1.372c1.337,0.915,2.483,2.068,3.439,3.46
		v-4.463h2.498v21.416c0,1.474-0.28,2.777-0.84,3.91s-1.311,2.082-2.252,2.847c-0.942,0.764-2.055,1.337-3.337,1.72
		c-1.284,0.382-2.636,0.573-4.055,0.573c-2.43,0-4.396-0.438-5.896-1.311c-1.502-0.874-2.717-2.048-3.645-3.521l1.72-1.352
		c0.847,1.365,1.966,2.368,3.358,3.01c1.392,0.641,2.88,0.962,4.463,0.962c1.037,0,2.027-0.143,2.969-0.43
		c0.942-0.286,1.761-0.71,2.457-1.27s1.249-1.27,1.658-2.129c0.41-0.86,0.614-1.863,0.614-3.01v-4.218
		c-0.846,1.365-1.973,2.443-3.378,3.235C202.812,174.721,201.331,175.116,199.776,175.116z M200.553,172.781
		c0.819,0,1.624-0.149,2.416-0.45c0.792-0.3,1.508-0.702,2.15-1.208c0.641-0.505,1.18-1.071,1.617-1.699
		c0.437-0.628,0.723-1.27,0.859-1.925v-6.593c-0.301-0.764-0.716-1.474-1.249-2.129c-0.532-0.655-1.126-1.215-1.781-1.679
		c-0.654-0.464-1.357-0.833-2.108-1.105c-0.751-0.273-1.509-0.41-2.272-0.41c-1.202,0-2.267,0.253-3.194,0.758
		c-0.928,0.506-1.72,1.167-2.375,1.986c-0.655,0.818-1.153,1.747-1.494,2.784c-0.342,1.038-0.512,2.088-0.512,3.153
		c0,1.146,0.204,2.238,0.613,3.275c0.41,1.038,0.969,1.945,1.68,2.724c0.709,0.777,1.549,1.392,2.518,1.843
		C198.389,172.557,199.434,172.781,200.553,172.781z"/>
	<path fill="#333333" d="M225.573,175.238c-1.557,0-2.983-0.293-4.279-0.88c-1.297-0.587-2.416-1.386-3.358-2.396
		c-0.941-1.01-1.672-2.184-2.19-3.521s-0.778-2.744-0.778-4.218c0-1.501,0.267-2.921,0.799-4.259
		c0.532-1.337,1.27-2.512,2.211-3.521c0.942-1.01,2.062-1.815,3.358-2.416c1.296-0.601,2.709-0.901,4.238-0.901
		c1.528,0,2.94,0.301,4.237,0.901s2.416,1.406,3.358,2.416c0.941,1.01,1.679,2.185,2.211,3.521c0.532,1.338,0.799,2.758,0.799,4.259
		c0,1.474-0.267,2.88-0.799,4.218s-1.27,2.512-2.211,3.521c-0.942,1.01-2.062,1.809-3.358,2.396S227.101,175.238,225.573,175.238z
		 M217.833,164.265c0,1.201,0.197,2.313,0.594,3.337c0.395,1.023,0.941,1.925,1.638,2.703c0.696,0.777,1.515,1.386,2.457,1.822
		c0.941,0.437,1.944,0.654,3.01,0.654c1.064,0,2.067-0.225,3.01-0.675c0.941-0.451,1.767-1.065,2.477-1.843
		c0.71-0.778,1.27-1.686,1.68-2.724c0.409-1.037,0.614-2.156,0.614-3.357c0-1.174-0.205-2.286-0.614-3.338
		c-0.41-1.05-0.97-1.965-1.68-2.743s-1.528-1.393-2.456-1.843c-0.929-0.45-1.925-0.676-2.989-0.676c-1.065,0-2.068,0.226-3.01,0.676
		c-0.942,0.45-1.761,1.072-2.457,1.863c-0.696,0.792-1.249,1.714-1.659,2.764C218.037,161.937,217.833,163.063,217.833,164.265z"/>
	<path fill="#333333" d="M239.33,164.101c0-1.501,0.26-2.921,0.778-4.259c0.519-1.337,1.249-2.504,2.19-3.501
		c0.942-0.996,2.068-1.781,3.379-2.354c1.31-0.573,2.757-0.86,4.34-0.86c2.021,0,3.781,0.458,5.283,1.372
		c1.501,0.915,2.634,2.149,3.398,3.706l-2.703,0.859c-0.601-1.091-1.433-1.944-2.497-2.559c-1.065-0.614-2.253-0.922-3.562-0.922
		c-1.093,0-2.109,0.219-3.051,0.655c-0.942,0.438-1.761,1.031-2.457,1.781c-0.696,0.751-1.243,1.646-1.638,2.683
		c-0.396,1.037-0.594,2.17-0.594,3.398c0,1.201,0.204,2.334,0.613,3.398c0.41,1.065,0.969,1.986,1.68,2.765
		c0.709,0.777,1.535,1.392,2.478,1.843c0.941,0.45,1.944,0.675,3.009,0.675c0.683,0,1.358-0.095,2.027-0.286
		c0.669-0.19,1.29-0.457,1.863-0.799c0.573-0.341,1.064-0.729,1.474-1.167c0.41-0.437,0.696-0.9,0.86-1.392l2.703,0.818
		c-0.301,0.765-0.737,1.468-1.311,2.109s-1.249,1.201-2.027,1.679c-0.778,0.478-1.638,0.847-2.58,1.105
		c-0.941,0.259-1.918,0.389-2.928,0.389c-1.556,0-2.989-0.293-4.299-0.88c-1.311-0.587-2.444-1.393-3.399-2.416
		c-0.956-1.023-1.699-2.204-2.231-3.542S239.33,165.63,239.33,164.101z"/>
	<path fill="#333333" d="M268.895,175.238c-1.093,0-2.089-0.171-2.989-0.512c-0.901-0.341-1.673-0.812-2.314-1.412
		s-1.14-1.297-1.494-2.089c-0.355-0.791-0.532-1.624-0.532-2.498c0-0.982,0.218-1.876,0.655-2.682
		c0.437-0.805,1.051-1.495,1.843-2.068c0.791-0.573,1.74-1.017,2.846-1.331c1.105-0.313,2.327-0.471,3.665-0.471
		c1.064,0,2.156,0.096,3.275,0.287s2.115,0.464,2.989,0.818v-1.924c0-1.884-0.539-3.379-1.617-4.484
		c-1.079-1.105-2.532-1.658-4.361-1.658c-1.146,0-2.286,0.219-3.419,0.655s-2.287,1.064-3.46,1.884l-0.983-1.843
		c1.393-0.928,2.744-1.624,4.055-2.089c1.31-0.464,2.675-0.696,4.095-0.696c2.593,0,4.653,0.752,6.183,2.253
		s2.294,3.576,2.294,6.224v9.623c0,0.765,0.327,1.146,0.982,1.146v2.457c-0.219,0.027-0.424,0.047-0.614,0.062
		c-0.191,0.014-0.355,0.021-0.491,0.021c-0.547,0-1.045-0.164-1.495-0.491c-0.45-0.328-0.703-0.819-0.757-1.475l-0.082-1.679
		c-0.929,1.256-2.15,2.231-3.665,2.928C271.986,174.891,270.451,175.238,268.895,175.238z M269.59,173.109
		c1.229,0,2.45-0.267,3.665-0.799s2.177-1.262,2.887-2.19c0.191-0.246,0.354-0.512,0.492-0.799c0.136-0.286,0.204-0.553,0.204-0.798
		v-3.481c-0.928-0.354-1.897-0.627-2.907-0.818c-1.01-0.19-1.993-0.287-2.948-0.287c-1.993,0-3.61,0.403-4.853,1.208
		c-1.242,0.806-1.863,1.918-1.863,3.338c0,0.573,0.109,1.133,0.328,1.679c0.218,0.546,0.553,1.038,1.003,1.474
		c0.45,0.438,1.003,0.792,1.658,1.065C267.911,172.973,268.69,173.109,269.59,173.109z"/>
	<path fill="#333333" d="M296.329,155.952c-1.884,0.055-3.521,0.573-4.914,1.556c-1.392,0.982-2.375,2.334-2.948,4.054v13.268
		h-2.784v-21.334h2.621v5.118c0.736-1.501,1.705-2.75,2.907-3.747c1.2-0.996,2.498-1.494,3.89-1.494c0.246,0,0.478,0,0.696,0
		c0.218,0,0.396,0.014,0.532,0.041V155.952z"/>
	<path fill="#333333" d="M310.375,173.806c-0.164,0.082-0.403,0.191-0.717,0.327c-0.314,0.137-0.676,0.273-1.085,0.409
		c-0.41,0.138-0.874,0.26-1.393,0.369c-0.519,0.108-1.064,0.164-1.638,0.164c-0.601,0-1.174-0.082-1.72-0.246
		c-0.547-0.164-1.024-0.416-1.434-0.758c-0.409-0.341-0.737-0.771-0.982-1.29c-0.246-0.518-0.369-1.118-0.369-1.802v-15.273h-2.948
		v-2.211h2.948v-7.207h2.785v7.207h4.913v2.211h-4.913v14.496c0.054,0.792,0.327,1.371,0.818,1.74
		c0.491,0.368,1.078,0.553,1.761,0.553c0.792,0,1.488-0.129,2.089-0.389c0.6-0.26,0.982-0.443,1.146-0.554L310.375,173.806z"/>
</g>
</svg>
