<?xml version="1.0" encoding="utf-8"?>

<!DOCTYPE svg PUBLIC "-//W3C//DTD SVG 1.1//EN"
	"http://www.w3.org/Graphics/SVG/1.1/DTD/svg11.dtd">
<svg version="1.1" xmlns="http://www.w3.org/2000/svg" x="0px" y="0px" width="511px" height="141px" viewBox="-6.106 -7.67 511 141" enable-background="new -6.106 -7.67 511 141" xml:space="preserve">
<defs>
</defs>
<path fill="#C1C1C1" d="M172.744,0L6.885,34.059C-3.314,87.978,0.834,95.645,0.834,95.645l95.648-6.13
	c0.873-17.503,15.336-31.422,33.052-31.422c13.007,0,24.257,7.507,29.666,18.424l6.009-51.892L172.744,0z"/>
<path fill="#111111" d="M129.535,118.882c15.294,0,27.693-12.399,27.693-27.692c0-15.296-12.399-27.694-27.693-27.694
	c-15.294,0-27.693,12.398-27.693,27.694c0,4.796,1.221,9.309,3.367,13.244h-2.257l-66.734,6c-1.321-4.857-5.76-8.429-11.035-8.429
	c-6.317,0-11.438,5.121-11.438,11.438c0,6.318,5.121,11.438,11.438,11.438c5.562,0,10.194-3.971,11.223-9.231l69.874-6h2.62
	C113.969,115.314,121.334,118.882,129.535,118.882z M129.535,80.753c5.763,0,10.435,4.673,10.435,10.437
	c0,5.762-4.672,10.435-10.435,10.435s-10.436-4.673-10.436-10.435C119.099,85.426,123.771,80.753,129.535,80.753z"/>
<circle fill="#818080" cx="129.535" cy="91.189" r="6.428"/>
<linearGradient id="SVGID_1_" gradientUnits="userSpaceOnUse" x1="123.4199" y1="-23.0005" x2="48.7778" y2="137.0699">
	<stop  offset="0" style="stop-color:#FFFFFF;stop-opacity:0.35"/>
	<stop  offset="0.9877" style="stop-color:#FFFFFF;stop-opacity:0"/>
</linearGradient>
<path fill="url(#SVGID_1_)" d="M165.209,24.625L159.2,76.517c-5.409-10.917-16.659-18.424-29.666-18.424
	c-17.715,0-32.179,13.919-33.052,31.422l-95.648,6.13c0,0-4.148-7.667,6.051-61.586L172.744,0L165.209,24.625z M108.899,109.65
	h-2.62l-69.874,6c-1.029,5.261-5.661,9.231-11.223,9.231c-6.317,0-11.438-5.12-11.438-11.438c0-6.317,5.121-11.438,11.438-11.438
	c5.275,0,9.714,3.571,11.035,8.429l66.734-6h2.257c-2.146-3.936-3.367-8.448-3.367-13.244c0-15.296,12.399-27.694,27.693-27.694
	c15.294,0,27.693,12.398,27.693,27.694c0,15.293-12.399,27.692-27.693,27.692C121.334,118.882,113.969,115.314,108.899,109.65z
	 M119.099,91.189c0,5.762,4.672,10.435,10.436,10.435s10.435-4.673,10.435-10.435c0-5.764-4.672-10.437-10.435-10.437
	S119.099,85.426,119.099,91.189z M123.106,91.189c0,3.55,2.878,6.428,6.428,6.428s6.429-2.878,6.429-6.428
	c0-3.552-2.878-6.43-6.429-6.43S123.106,87.638,123.106,91.189z"/>
<path fill="#454545" d="M234.89,26.347h6.501v50.711c0,3.758-0.379,7.35-1.138,10.782c-0.758,3.431-2.113,6.447-4.063,9.048
	s-4.624,4.677-8.019,6.23c-3.396,1.553-7.766,2.33-13.111,2.33c-4.118,0-7.658-0.525-10.619-1.571
	c-2.963-1.048-5.383-2.366-7.26-3.955c-1.879-1.59-3.305-3.343-4.28-5.255c-0.975-1.916-1.5-3.703-1.571-5.364h6.935
	c0.505,2.095,1.3,3.81,2.384,5.147c1.084,1.336,2.366,2.383,3.847,3.143c1.479,0.758,3.124,1.281,4.93,1.57
	c1.805,0.288,3.684,0.434,5.635,0.434c4.405,0,7.946-0.758,10.619-2.275c2.672-1.518,4.695-3.505,6.068-5.96
	c1.372-2.456,2.257-5.238,2.655-8.343c0.396-3.105,0.559-6.285,0.488-9.536c-2.096,3.468-4.968,6.087-8.615,7.856
	c-3.648,1.769-7.459,2.654-11.432,2.654c-4.263,0-7.964-0.812-11.107-2.438c-3.143-1.626-5.743-3.793-7.802-6.502
	c-2.059-2.709-3.595-5.869-4.605-9.481c-1.012-3.612-1.517-7.368-1.517-11.27c0-4.118,0.469-7.981,1.409-11.594
	c0.938-3.612,2.438-6.735,4.497-9.373c2.059-2.636,4.676-4.714,7.856-6.231c3.178-1.517,7.043-2.275,11.595-2.275
	c1.805,0,3.647,0.254,5.526,0.758c1.877,0.506,3.701,1.229,5.472,2.167c1.77,0.939,3.395,2.131,4.876,3.576
	c1.479,1.446,2.69,3.071,3.63,4.876h0.217V26.347z M234.89,54.629c0-3.395-0.417-6.556-1.246-9.481
	c-0.832-2.926-2.042-5.454-3.63-7.585c-1.59-2.13-3.576-3.809-5.96-5.039c-2.384-1.228-5.093-1.842-8.127-1.842
	c-2.746,0-5.274,0.488-7.585,1.463c-2.313,0.976-4.334,2.403-6.068,4.28c-1.733,1.879-3.088,4.172-4.063,6.881
	c-0.975,2.709-1.463,5.834-1.463,9.373c-0.146,3.541,0.144,6.845,0.867,9.916c0.721,3.07,1.877,5.762,3.467,8.072
	c1.588,2.312,3.611,4.137,6.068,5.473c2.455,1.337,5.38,2.004,8.777,2.004c2.961,0,5.616-0.631,7.964-1.896
	c2.347-1.263,4.334-2.961,5.96-5.093c1.625-2.13,2.872-4.622,3.738-7.477C234.456,60.824,234.89,57.809,234.89,54.629z"/>
<path fill="#454545" d="M280.074,83.994c-3.613-0.072-6.988-0.723-10.131-1.951c-3.143-1.227-5.889-3.068-8.236-5.525
	c-2.348-2.455-4.209-5.526-5.581-9.211c-1.373-3.684-2.059-7.98-2.059-12.895c0-4.118,0.542-7.964,1.625-11.541
	c1.083-3.576,2.709-6.699,4.876-9.373c2.167-2.671,4.876-4.785,8.127-6.339c3.25-1.553,7.043-2.33,11.377-2.33
	c4.406,0,8.236,0.777,11.486,2.33c3.25,1.554,5.959,3.649,8.127,6.285c2.168,2.638,3.773,5.762,4.822,9.373
	c1.047,3.613,1.57,7.477,1.57,11.595c0,4.48-0.613,8.525-1.842,12.137c-1.229,3.612-2.98,6.718-5.256,9.318
	s-5.021,4.605-8.234,6.014C287.533,83.289,283.975,83.994,280.074,83.994z M299.146,54.412c0-3.322-0.363-6.429-1.084-9.319
	c-0.723-2.889-1.842-5.399-3.359-7.531c-1.518-2.13-3.467-3.809-5.852-5.039c-2.385-1.228-5.309-1.842-8.777-1.842
	c-3.396,0-6.303,0.669-8.723,2.005c-2.421,1.337-4.389,3.107-5.906,5.31c-1.517,2.205-2.638,4.732-3.359,7.585
	c-0.723,2.855-1.083,5.797-1.083,8.832c0,3.467,0.415,6.664,1.246,9.59c0.83,2.926,2.04,5.437,3.63,7.531
	c1.588,2.096,3.576,3.721,5.96,4.876c2.383,1.156,5.127,1.733,8.234,1.733c3.395,0,6.303-0.667,8.723-2.004
	c2.42-1.336,4.389-3.125,5.906-5.364c1.518-2.238,2.637-4.769,3.359-7.585C298.783,60.371,299.146,57.446,299.146,54.412z"/>
<path fill="#454545" d="M357.768,44.01c-1.156-4.189-3.143-7.458-5.959-9.807c-2.817-2.347-6.394-3.522-10.728-3.522
	c-3.324,0-6.177,0.688-8.561,2.059c-2.384,1.373-4.335,3.197-5.852,5.472c-1.518,2.275-2.638,4.84-3.359,7.693
	c-0.723,2.854-1.083,5.726-1.083,8.615c0,2.963,0.342,5.851,1.029,8.669c0.686,2.816,1.787,5.347,3.305,7.585
	c1.517,2.239,3.468,4.028,5.852,5.364c2.384,1.337,5.272,2.004,8.669,2.004c4.839,0,8.723-1.336,11.648-4.01
	c2.926-2.672,4.784-6.355,5.58-11.053h6.936c-0.579,3.107-1.501,5.943-2.764,8.507c-1.265,2.565-2.89,4.769-4.876,6.61
	c-1.988,1.842-4.354,3.27-7.098,4.279c-2.746,1.012-5.889,1.518-9.427,1.518c-4.48,0-8.344-0.759-11.595-2.275
	c-3.251-1.518-5.925-3.593-8.019-6.23c-2.097-2.637-3.648-5.76-4.659-9.373c-1.013-3.611-1.518-7.477-1.518-11.595
	c0-3.901,0.559-7.64,1.68-11.215c1.119-3.576,2.763-6.735,4.931-9.481c2.167-2.745,4.857-4.93,8.072-6.556
	c3.214-1.625,6.917-2.438,11.107-2.438c6.501,0,11.757,1.554,15.766,4.659c4.01,3.107,6.519,7.948,7.531,14.521H357.768z"/>
<path fill="#454545" d="M404.038,49.752c1.227-0.144,2.689-0.36,4.388-0.65c1.697-0.288,3.089-0.686,4.172-1.192
	c1.084-0.505,1.751-1.354,2.005-2.546c0.252-1.192,0.379-2.292,0.379-3.305c0-3.322-1.066-6.049-3.196-8.181
	c-2.132-2.13-5.726-3.197-10.781-3.197c-2.24,0-4.299,0.2-6.177,0.596c-1.88,0.398-3.521,1.083-4.931,2.059
	c-1.408,0.975-2.564,2.275-3.467,3.901c-0.904,1.625-1.501,3.667-1.788,6.122h-6.61c0.217-3.322,0.976-6.158,2.275-8.506
	c1.301-2.347,2.98-4.261,5.039-5.743c2.059-1.48,4.442-2.563,7.151-3.251c2.709-0.686,5.581-1.029,8.615-1.029
	c2.817,0,5.472,0.308,7.964,0.921c2.492,0.615,4.659,1.59,6.502,2.926c1.842,1.337,3.286,3.125,4.334,5.364
	c1.047,2.24,1.571,4.984,1.571,8.235v30.557c0,2.53,0.45,4.136,1.354,4.822c0.902,0.687,2.726,0.524,5.472-0.487v5.092
	c-0.506,0.146-1.246,0.361-2.221,0.65c-0.976,0.288-1.934,0.434-2.872,0.434c-1.012,0-1.987-0.108-2.926-0.324
	c-1.083-0.146-1.95-0.488-2.601-1.03c-0.649-0.542-1.175-1.192-1.57-1.95c-0.398-0.759-0.669-1.588-0.813-2.492
	c-0.146-0.902-0.217-1.859-0.217-2.871c-2.746,3.033-5.889,5.346-9.427,6.935c-3.54,1.588-7.368,2.384-11.486,2.384
	c-2.456,0-4.822-0.325-7.098-0.975c-2.275-0.65-4.28-1.662-6.014-3.035c-1.733-1.371-3.106-3.051-4.117-5.038
	c-1.013-1.986-1.518-4.352-1.518-7.098c0-9.536,6.537-15.17,19.613-16.904L404.038,49.752z M414.981,53.003
	c-2.746,1.156-5.525,1.915-8.343,2.275c-2.817,0.362-5.635,0.65-8.452,0.867c-4.984,0.362-8.869,1.481-11.648,3.359
	c-2.782,1.88-4.172,4.732-4.172,8.561c0,1.733,0.342,3.233,1.029,4.497c0.686,1.265,1.588,2.312,2.709,3.143
	c1.119,0.831,2.419,1.445,3.9,1.842c1.48,0.398,2.98,0.596,4.497,0.596c2.601,0,5.129-0.325,7.585-0.975
	c2.455-0.65,4.641-1.643,6.556-2.98c1.913-1.336,3.449-3.034,4.605-5.093c1.155-2.06,1.733-4.497,1.733-7.314V53.003z"/>
<path fill="#454545" d="M445.322,82.477h-6.502V26.347h6.502v10.511h0.216c1.806-4.479,4.135-7.602,6.989-9.373
	c2.854-1.77,6.627-2.655,11.324-2.655v7.043c-3.685-0.071-6.719,0.506-9.103,1.733c-2.384,1.229-4.28,2.89-5.688,4.985
	c-1.409,2.096-2.384,4.569-2.926,7.422c-0.542,2.854-0.812,5.834-0.812,8.939V82.477z"/>
<path fill="#454545" d="M496.249,82.693c-0.796,0.145-1.843,0.396-3.143,0.759c-1.301,0.36-2.746,0.542-4.334,0.542
	c-3.251,0-5.727-0.812-7.423-2.438c-1.698-1.626-2.547-4.533-2.547-8.724V31.765h-7.91v-5.418h7.91V10.743h6.502v15.604h10.511
	v5.418h-10.511v38.467c0,1.373,0.035,2.564,0.108,3.576c0.071,1.012,0.288,1.842,0.65,2.492c0.36,0.65,0.921,1.121,1.679,1.408
	c0.759,0.289,1.824,0.434,3.197,0.434c0.866,0,1.75-0.07,2.654-0.217c0.902-0.144,1.788-0.324,2.655-0.541V82.693z"/>
</svg>
